<svg width="16" height="16" viewBox="0 0 16 16" fill="none" xmlns="http://www.w3.org/2000/svg">
<path d="M5.29301 1.63599C5.10554 1.82351 5.00023 2.07782 5.00023 2.34299C5.00023 2.60815 5.10554 2.86246 5.29301 3.04999L10.243 7.99999L5.29301 12.95C5.11086 13.1386 5.01006 13.3912 5.01234 13.6534C5.01462 13.9156 5.11979 14.1664 5.30519 14.3518C5.4906 14.5372 5.74142 14.6424 6.00361 14.6447C6.26581 14.6469 6.51841 14.5461 6.70701 14.364L12.364 8.70699C12.5515 8.51946 12.6568 8.26515 12.6568 7.99999C12.6568 7.73482 12.5515 7.48051 12.364 7.29299L6.70701 1.63599C6.51949 1.44852 6.26518 1.3432 6.00001 1.3432C5.73485 1.3432 5.48054 1.44852 5.29301 1.63599Z" fill="black"/>
</svg>
